# xmcd
#
# Track frame offsets: 
#        150
#        16929
#        45928
#        71718
#        93603
#        114360
#        133649
#        147785
#        166836
#        185425
#        233919
#        282414
#
# Disc length: 4325 seconds
#
# Revision: 0
# Processed by: cddbd v1.5.1PL2 Copyright (c) Steve Scherf et al.
# Submitted via: ExactAudioCopy v0.95b2
#
DISCID=a010e30c
DTITLE=Jean Shy and The Shy Guys - Unchain My Heart
DYEAR=1998
DGENRE=Blues
TTITLE0=I Wouldn't Wanna Be You
TTITLE1=Unchain My Heart
TTITLE2=Get Here
TTITLE3=Livin' The Blues
TTITLE4=Song for You
TTITLE5=Chain The Fools
TTITLE6=I Never Loved A Man
TTITLE7=Angel
TTITLE8=We Like The Same Thangs
TTITLE9=Rock Me
TTITLE10=One Day
TTITLE11=Old Time Rock'n Roll
EXTD=
EXTT0=
EXTT1=
EXTT2=
EXTT3=
EXTT4=
EXTT5=
EXTT6=
EXTT7=
EXTT8=
EXTT9=
EXTT10=
EXTT11=
PLAYORDER=
